<svg width="40" height="40" viewBox="0 0 40 40" fill="none" xmlns="http://www.w3.org/2000/svg">
<rect width="40" height="40" rx="10" fill="white"/>
<path d="M9.45456 12.8696H13.0909" stroke="#DA0175" stroke-width="1.5" stroke-linecap="round" stroke-linejoin="round"/>
<path d="M9.45456 27.478H13.0909" stroke="#DA0175" stroke-width="1.5" stroke-linecap="round" stroke-linejoin="round"/>
<path d="M21.0909 12.8696H30.5455" stroke="#DA0175" stroke-width="1.5" stroke-linecap="round" stroke-linejoin="round"/>
<path d="M21.0909 27.478H30.5455" stroke="#DA0175" stroke-width="1.5" stroke-linecap="round" stroke-linejoin="round"/>
<path d="M9.45456 20.1738H20.3637" stroke="#DA0175" stroke-width="1.5" stroke-linecap="round" stroke-linejoin="round"/>
<path d="M28.3636 20.1738H30.5455" stroke="#DA0175" stroke-width="1.5" stroke-linecap="round" stroke-linejoin="round"/>
<path d="M17.0909 15.9996C18.8984 15.9996 20.3637 14.5981 20.3637 12.8692C20.3637 11.1403 18.8984 9.73877 17.0909 9.73877C15.2835 9.73877 13.8182 11.1403 13.8182 12.8692C13.8182 14.5981 15.2835 15.9996 17.0909 15.9996Z" stroke="#DA0175" stroke-width="1.5" stroke-linecap="round" stroke-linejoin="round"/>
<path d="M17.0909 30.6085C18.8984 30.6085 20.3637 29.207 20.3637 27.4781C20.3637 25.7492 18.8984 24.3477 17.0909 24.3477C15.2835 24.3477 13.8182 25.7492 13.8182 27.4781C13.8182 29.207 15.2835 30.6085 17.0909 30.6085Z" stroke="#DA0175" stroke-width="1.5" stroke-linecap="round" stroke-linejoin="round"/>
<path d="M24.3636 23.3043C26.1711 23.3043 27.6364 21.9028 27.6364 20.1739C27.6364 18.445 26.1711 17.0435 24.3636 17.0435C22.5562 17.0435 21.0909 18.445 21.0909 20.1739C21.0909 21.9028 22.5562 23.3043 24.3636 23.3043Z" stroke="#DA0175" stroke-width="1.5" stroke-linecap="round" stroke-linejoin="round"/>
</svg>
