<svg width="35" height="35" viewBox="0 0 35 35" fill="none" xmlns="http://www.w3.org/2000/svg">
<path d="M16.75 19.25H13.25C12.1454 19.25 11.25 18.3546 11.25 17.25V6.75C11.25 5.64543 12.1454 4.75 13.25 4.75H19.5L23.75 9V11.25" stroke="#DA0175" stroke-width="1.5" stroke-linecap="round" stroke-linejoin="round"/>
<path d="M22.5 14.75V19.25" stroke="#DA0175" stroke-width="1.5" stroke-linecap="round" stroke-linejoin="round"/>
<path d="M24.75 17H20.25" stroke="#DA0175" stroke-width="1.5" stroke-linecap="round" stroke-linejoin="round"/>
<path d="M23.5 9.25H19.25V5" stroke="#DA0175" stroke-width="1.5" stroke-linecap="round" stroke-linejoin="round"/>
<path d="M3.112 32.064C2.57333 32.064 2.104 31.9493 1.704 31.72C1.304 31.4853 0.997334 31.152 0.784001 30.72C0.570668 30.2827 0.464001 29.768 0.464001 29.176C0.464001 28.5893 0.570668 28.08 0.784001 27.648C0.997334 27.2107 1.304 26.8773 1.704 26.648C2.104 26.4133 2.57333 26.296 3.112 26.296C3.464 26.296 3.79733 26.352 4.112 26.464C4.42667 26.5707 4.70133 26.728 4.936 26.936C5.03733 27.016 5.088 27.1227 5.088 27.256C5.088 27.352 5.06133 27.4347 5.008 27.504C4.95467 27.568 4.89067 27.6 4.816 27.6C4.72533 27.6 4.63733 27.5653 4.552 27.496C4.296 27.304 4.06133 27.1707 3.848 27.096C3.64 27.016 3.40267 26.976 3.136 26.976C2.54933 26.976 2.09867 27.1653 1.784 27.544C1.46933 27.9227 1.312 28.4667 1.312 29.176C1.312 29.8907 1.46933 30.4373 1.784 30.816C2.09867 31.1947 2.54933 31.384 3.136 31.384C3.392 31.384 3.624 31.344 3.832 31.264C4.04533 31.184 4.28533 31.0507 4.552 30.864C4.65867 30.7947 4.74667 30.76 4.816 30.76C4.89067 30.76 4.95467 30.7947 5.008 30.864C5.06133 30.928 5.088 31.008 5.088 31.104C5.088 31.2373 5.03733 31.344 4.936 31.424C4.70133 31.632 4.42667 31.792 4.112 31.904C3.79733 32.0107 3.464 32.064 3.112 32.064ZM7.59194 32.056C7.20794 32.056 6.86927 31.9733 6.57594 31.808C6.28794 31.6427 6.06394 31.408 5.90394 31.104C5.74927 30.7947 5.67194 30.4373 5.67194 30.032C5.67194 29.6213 5.74927 29.264 5.90394 28.96C6.06394 28.6507 6.28794 28.4133 6.57594 28.248C6.86927 28.0827 7.20794 28 7.59194 28C7.97594 28 8.31194 28.0827 8.59994 28.248C8.89327 28.4133 9.11727 28.6507 9.27194 28.96C9.43194 29.264 9.51194 29.6213 9.51194 30.032C9.51194 30.4373 9.43194 30.7947 9.27194 31.104C9.11727 31.408 8.89327 31.6427 8.59994 31.808C8.31194 31.9733 7.97594 32.056 7.59194 32.056ZM7.59194 31.416C7.94927 31.416 8.22127 31.2987 8.40794 31.064C8.59994 30.8293 8.69594 30.4853 8.69594 30.032C8.69594 29.584 8.59994 29.2427 8.40794 29.008C8.21594 28.768 7.94394 28.648 7.59194 28.648C7.23994 28.648 6.96794 28.768 6.77594 29.008C6.58394 29.2427 6.48794 29.584 6.48794 30.032C6.48794 30.4853 6.58127 30.8293 6.76794 31.064C6.95994 31.2987 7.2346 31.416 7.59194 31.416ZM12.5076 28C12.8489 28 13.1502 28.0827 13.4116 28.248C13.6729 28.4133 13.8756 28.648 14.0196 28.952C14.1689 29.256 14.2436 29.6107 14.2436 30.016C14.2436 30.416 14.1689 30.7707 14.0196 31.08C13.8756 31.3893 13.6702 31.6293 13.4036 31.8C13.1422 31.9707 12.8436 32.056 12.5076 32.056C12.2142 32.056 11.9556 31.9947 11.7316 31.872C11.5076 31.744 11.3369 31.5627 11.2196 31.328V31.648C11.2196 31.7653 11.1822 31.8613 11.1076 31.936C11.0382 32.0053 10.9422 32.04 10.8196 32.04C10.6969 32.04 10.5982 32.0053 10.5236 31.936C10.4489 31.8613 10.4116 31.7653 10.4116 31.648V26.704C10.4116 26.5867 10.4489 26.4933 10.5236 26.424C10.6036 26.3547 10.7049 26.32 10.8276 26.32C10.9449 26.32 11.0382 26.3547 11.1076 26.424C11.1822 26.488 11.2196 26.576 11.2196 26.688V28.736C11.3369 28.5013 11.5076 28.32 11.7316 28.192C11.9556 28.064 12.2142 28 12.5076 28ZM12.3156 31.416C12.6622 31.416 12.9316 31.2933 13.1236 31.048C13.3209 30.8027 13.4196 30.4587 13.4196 30.016C13.4196 29.5787 13.3236 29.2427 13.1316 29.008C12.9396 28.768 12.6676 28.648 12.3156 28.648C11.9636 28.648 11.6916 28.768 11.4996 29.008C11.3129 29.248 11.2196 29.5893 11.2196 30.032C11.2196 30.4747 11.3129 30.816 11.4996 31.056C11.6916 31.296 11.9636 31.416 12.3156 31.416ZM17.1861 28.016C17.4421 28 17.5701 28.1093 17.5701 28.344C17.5701 28.4613 17.5408 28.5493 17.4821 28.608C17.4235 28.6667 17.3221 28.7013 17.1781 28.712L16.9381 28.736C16.6021 28.768 16.3515 28.8853 16.1861 29.088C16.0261 29.2907 15.9461 29.536 15.9461 29.824V31.656C15.9461 31.784 15.9088 31.88 15.8341 31.944C15.7595 32.008 15.6635 32.04 15.5461 32.04C15.4288 32.04 15.3301 32.008 15.2501 31.944C15.1755 31.88 15.1381 31.784 15.1381 31.656V28.4C15.1381 28.2773 15.1755 28.184 15.2501 28.12C15.3301 28.0507 15.4288 28.016 15.5461 28.016C15.6528 28.016 15.7408 28.0507 15.8101 28.12C15.8848 28.184 15.9221 28.2747 15.9221 28.392V28.776C16.0288 28.5413 16.1835 28.3627 16.3861 28.24C16.5888 28.1173 16.8181 28.0453 17.0741 28.024L17.1861 28.016ZM19.6844 28C20.2017 28 20.5857 28.1307 20.8364 28.392C21.0924 28.6533 21.2204 29.0507 21.2204 29.584V31.656C21.2204 31.7787 21.1857 31.8747 21.1164 31.944C21.047 32.008 20.951 32.04 20.8284 32.04C20.711 32.04 20.6177 32.0053 20.5484 31.936C20.479 31.8667 20.4444 31.7733 20.4444 31.656V31.36C20.343 31.584 20.191 31.7573 19.9884 31.88C19.791 31.9973 19.559 32.056 19.2924 32.056C19.0364 32.056 18.8017 32.0053 18.5884 31.904C18.3804 31.7973 18.215 31.6533 18.0924 31.472C17.9697 31.2907 17.9084 31.0853 17.9084 30.856C17.903 30.568 17.975 30.344 18.1244 30.184C18.2737 30.0187 18.5164 29.9013 18.8524 29.832C19.1884 29.7573 19.655 29.72 20.2524 29.72H20.4364V29.488C20.4364 29.1893 20.375 28.9733 20.2524 28.84C20.1297 28.7067 19.9324 28.64 19.6604 28.64C19.4737 28.64 19.2977 28.664 19.1324 28.712C18.967 28.76 18.7857 28.8293 18.5884 28.92C18.4444 29 18.343 29.04 18.2844 29.04C18.2044 29.04 18.1377 29.0107 18.0844 28.952C18.0364 28.8933 18.0124 28.8187 18.0124 28.728C18.0124 28.648 18.0337 28.5787 18.0764 28.52C18.1244 28.456 18.199 28.3947 18.3004 28.336C18.487 28.2347 18.7057 28.1547 18.9564 28.096C19.207 28.032 19.4497 28 19.6844 28ZM19.4364 31.456C19.7297 31.456 19.9697 31.3573 20.1564 31.16C20.343 30.9573 20.4364 30.6987 20.4364 30.384V30.176H20.2924C19.8764 30.176 19.5564 30.1947 19.3324 30.232C19.1084 30.2693 18.9484 30.3333 18.8524 30.424C18.7564 30.5093 18.7084 30.6347 18.7084 30.8C18.7084 30.992 18.7777 31.1493 18.9164 31.272C19.055 31.3947 19.2284 31.456 19.4364 31.456ZM24.4296 28C25.363 28 25.8296 28.5253 25.8296 29.576V31.656C25.8296 31.7787 25.7923 31.8747 25.7176 31.944C25.6483 32.008 25.5496 32.04 25.4216 32.04C25.299 32.04 25.2003 32.0053 25.1256 31.936C25.0563 31.8667 25.0216 31.7733 25.0216 31.656V29.616C25.0216 29.2853 24.955 29.0427 24.8216 28.888C24.6936 28.7333 24.491 28.656 24.2136 28.656C23.8883 28.656 23.627 28.7573 23.4296 28.96C23.2323 29.1627 23.1336 29.4347 23.1336 29.776V31.656C23.1336 31.7733 23.0963 31.8667 23.0216 31.936C22.9523 32.0053 22.8563 32.04 22.7336 32.04C22.611 32.04 22.5123 32.0053 22.4376 31.936C22.363 31.8667 22.3256 31.7733 22.3256 31.656V28.4C22.3256 28.288 22.363 28.1973 22.4376 28.128C22.5176 28.0533 22.6163 28.016 22.7336 28.016C22.851 28.016 22.9443 28.0507 23.0136 28.12C23.083 28.1893 23.1176 28.28 23.1176 28.392V28.72C23.2456 28.4853 23.4243 28.3067 23.6536 28.184C23.883 28.0613 24.1416 28 24.4296 28ZM29.823 31.008C29.8977 31.008 29.959 31.04 30.007 31.104C30.055 31.1627 30.079 31.2373 30.079 31.328C30.079 31.4027 30.0577 31.472 30.015 31.536C29.9777 31.5947 29.911 31.656 29.815 31.72C29.6763 31.8107 29.5163 31.8853 29.335 31.944C29.1537 32.0027 28.9697 32.0373 28.783 32.048L28.743 32.352C28.8177 32.336 28.8843 32.328 28.943 32.328C29.1083 32.328 29.247 32.376 29.359 32.472C29.4763 32.568 29.535 32.704 29.535 32.88C29.535 33.0773 29.4497 33.2373 29.279 33.36C29.1083 33.488 28.8657 33.552 28.551 33.552C28.343 33.552 28.159 33.5227 27.999 33.464C27.903 33.4267 27.855 33.36 27.855 33.264C27.855 33.2 27.8763 33.1467 27.919 33.104C27.967 33.0613 28.0283 33.0507 28.103 33.072C28.263 33.1147 28.4123 33.136 28.551 33.136C28.6897 33.136 28.7963 33.1147 28.871 33.072C28.9457 33.0293 28.983 32.9653 28.983 32.88C28.983 32.816 28.9617 32.7653 28.919 32.728C28.8817 32.696 28.8257 32.68 28.751 32.68C28.6977 32.68 28.6257 32.6907 28.535 32.712C28.4443 32.7333 28.3883 32.744 28.367 32.744C28.3243 32.744 28.2843 32.728 28.247 32.696C28.215 32.6693 28.2017 32.632 28.207 32.584L28.271 32.032C27.791 31.9573 27.4097 31.744 27.127 31.392C26.8497 31.04 26.711 30.592 26.711 30.048C26.711 29.6427 26.791 29.2853 26.951 28.976C27.1163 28.6667 27.3457 28.4267 27.639 28.256C27.9323 28.0853 28.2683 28 28.647 28C28.8497 28 29.0523 28.0293 29.255 28.088C29.463 28.1467 29.647 28.2267 29.807 28.328C29.9777 28.4453 30.063 28.5813 30.063 28.736C30.063 28.8267 30.039 28.904 29.991 28.968C29.943 29.0267 29.8817 29.056 29.807 29.056C29.759 29.056 29.711 29.0453 29.663 29.024C29.615 28.9973 29.5537 28.96 29.479 28.912C29.3457 28.8267 29.2203 28.7627 29.103 28.72C28.991 28.672 28.855 28.648 28.695 28.648C28.3323 28.648 28.0497 28.7707 27.847 29.016C27.6497 29.2613 27.551 29.6027 27.551 30.04C27.551 30.4773 27.6497 30.816 27.847 31.056C28.0443 31.2907 28.3243 31.408 28.687 31.408C28.847 31.408 28.9883 31.384 29.111 31.336C29.2337 31.288 29.359 31.224 29.487 31.144C29.5457 31.1067 29.6043 31.0747 29.663 31.048C29.7217 31.0213 29.775 31.008 29.823 31.008ZM32.4422 28C32.9595 28 33.3435 28.1307 33.5942 28.392C33.8502 28.6533 33.9782 29.0507 33.9782 29.584V31.656C33.9782 31.7787 33.9435 31.8747 33.8742 31.944C33.8049 32.008 33.7089 32.04 33.5862 32.04C33.4689 32.04 33.3755 32.0053 33.3062 31.936C33.2369 31.8667 33.2022 31.7733 33.2022 31.656V31.36C33.1009 31.584 32.9489 31.7573 32.7462 31.88C32.5489 31.9973 32.3169 32.056 32.0502 32.056C31.7942 32.056 31.5595 32.0053 31.3462 31.904C31.1382 31.7973 30.9729 31.6533 30.8502 31.472C30.7275 31.2907 30.6662 31.0853 30.6662 30.856C30.6609 30.568 30.7329 30.344 30.8822 30.184C31.0315 30.0187 31.2742 29.9013 31.6102 29.832C31.9462 29.7573 32.4129 29.72 33.0102 29.72H33.1942V29.488C33.1942 29.1893 33.1329 28.9733 33.0102 28.84C32.8875 28.7067 32.6902 28.64 32.4182 28.64C32.2315 28.64 32.0555 28.664 31.8902 28.712C31.7249 28.76 31.5435 28.8293 31.3462 28.92C31.2022 29 31.1009 29.04 31.0422 29.04C30.9622 29.04 30.8955 29.0107 30.8422 28.952C30.7942 28.8933 30.7702 28.8187 30.7702 28.728C30.7702 28.648 30.7915 28.5787 30.8342 28.52C30.8822 28.456 30.9569 28.3947 31.0582 28.336C31.2449 28.2347 31.4635 28.1547 31.7142 28.096C31.9649 28.032 32.2075 28 32.4422 28ZM32.1942 31.456C32.4875 31.456 32.7275 31.3573 32.9142 31.16C33.1009 30.9573 33.1942 30.6987 33.1942 30.384V30.176H33.0502C32.6342 30.176 32.3142 30.1947 32.0902 30.232C31.8662 30.2693 31.7062 30.3333 31.6102 30.424C31.5142 30.5093 31.4662 30.6347 31.4662 30.8C31.4662 30.992 31.5355 31.1493 31.6742 31.272C31.8129 31.3947 31.9862 31.456 32.1942 31.456Z" fill="#DA0175"/>
</svg>
