<svg width="32" height="33" viewBox="0 0 32 33" fill="none" xmlns="http://www.w3.org/2000/svg">
<mask id="path-1-inside-1_3_15" fill="white">
<path d="M32 16.5C32 25.3366 24.8366 32.5 16 32.5C7.16344 32.5 0 25.3366 0 16.5C0 7.66344 7.16344 0.5 16 0.5C24.8366 0.5 32 7.66344 32 16.5Z"/>
<path d="M19.1998 16.5C19.1998 18.2674 17.7671 19.7 15.9998 19.7C14.2325 19.7 12.7998 18.2674 12.7998 16.5C12.7998 14.7327 14.2325 13.3 15.9998 13.3C17.7671 13.3 19.1998 14.7327 19.1998 16.5Z"/>
</mask>
<path d="M32 16.5C32 25.3366 24.8366 32.5 16 32.5C7.16344 32.5 0 25.3366 0 16.5C0 7.66344 7.16344 0.5 16 0.5C24.8366 0.5 32 7.66344 32 16.5Z" fill="#F0F0F5"/>
<path d="M19.1998 16.5C19.1998 18.2674 17.7671 19.7 15.9998 19.7C14.2325 19.7 12.7998 18.2674 12.7998 16.5C12.7998 14.7327 14.2325 13.3 15.9998 13.3C17.7671 13.3 19.1998 14.7327 19.1998 16.5Z" fill="#0E8750"/>
<path d="M31 16.5C31 24.7843 24.2843 31.5 16 31.5V33.5C25.3888 33.5 33 25.8888 33 16.5H31ZM16 31.5C7.71573 31.5 1 24.7843 1 16.5H-1C-1 25.8888 6.61116 33.5 16 33.5V31.5ZM1 16.5C1 8.21573 7.71573 1.5 16 1.5V-0.5C6.61116 -0.5 -1 7.11116 -1 16.5H1ZM16 1.5C24.2843 1.5 31 8.21573 31 16.5H33C33 7.11116 25.3888 -0.5 16 -0.5V1.5ZM18.1998 16.5C18.1998 17.7151 17.2148 18.7 15.9998 18.7V20.7C18.3194 20.7 20.1998 18.8196 20.1998 16.5H18.1998ZM15.9998 18.7C14.7848 18.7 13.7998 17.7151 13.7998 16.5H11.7998C11.7998 18.8196 13.6802 20.7 15.9998 20.7V18.7ZM13.7998 16.5C13.7998 15.285 14.7848 14.3 15.9998 14.3V12.3C13.6802 12.3 11.7998 14.1805 11.7998 16.5H13.7998ZM15.9998 14.3C17.2148 14.3 18.1998 15.285 18.1998 16.5H20.1998C20.1998 14.1805 18.3194 12.3 15.9998 12.3V14.3Z" fill="#0E8750" mask="url(#path-1-inside-1_3_15)"/>
</svg>
