<svg width="25" height="31" viewBox="0 0 25 31" fill="none" xmlns="http://www.w3.org/2000/svg">
<path d="M6.75 4.29883L7.59115 13.9721C7.68102 15.0056 8.54622 15.7988 9.58363 15.7988H14.4164C15.4538 15.7988 16.319 15.0056 16.4088 13.9721L17.25 4.29883" stroke="#AE1100" stroke-width="1.5" stroke-linecap="round" stroke-linejoin="round"/>
<path d="M9.75 4.04883V3.29883C9.75 2.19426 10.6454 1.29883 11.75 1.29883H12.25C13.3546 1.29883 14.25 2.19426 14.25 3.29883V4.04883" stroke="#AE1100" stroke-width="1.5" stroke-linecap="round" stroke-linejoin="round"/>
<path d="M5 4.29883H19" stroke="#AE1100" stroke-width="1.5" stroke-linecap="round" stroke-linejoin="round"/>
<path d="M1.064 27.5488C0.936 27.5488 0.834667 27.5142 0.76 27.4448C0.690667 27.3702 0.656 27.2715 0.656 27.1488V22.3088C0.656 22.1862 0.690667 22.0902 0.76 22.0208C0.834667 21.9462 0.936 21.9088 1.064 21.9088H4.008C4.13067 21.9088 4.224 21.9382 4.288 21.9968C4.35733 22.0555 4.392 22.1382 4.392 22.2448C4.392 22.3515 4.35733 22.4342 4.288 22.4928C4.224 22.5462 4.13067 22.5728 4.008 22.5728H1.464V24.3488H3.848C3.97067 24.3488 4.064 24.3782 4.128 24.4368C4.19733 24.4955 4.232 24.5782 4.232 24.6848C4.232 24.7915 4.19733 24.8742 4.128 24.9328C4.064 24.9915 3.97067 25.0208 3.848 25.0208H1.464V26.8848H4.008C4.264 26.8848 4.392 26.9942 4.392 27.2128C4.392 27.3195 4.35733 27.4022 4.288 27.4608C4.224 27.5195 4.13067 27.5488 4.008 27.5488H1.064ZM8.52769 26.9408C8.60769 27.0208 8.64769 27.1142 8.64769 27.2208C8.64769 27.3222 8.61035 27.4102 8.53569 27.4848C8.46635 27.5542 8.38102 27.5888 8.27969 27.5888C8.17835 27.5888 8.08502 27.5435 7.99969 27.4528L6.77569 26.0768L5.55969 27.4528C5.47435 27.5435 5.38102 27.5888 5.27969 27.5888C5.17835 27.5888 5.09035 27.5515 5.01569 27.4768C4.94635 27.4022 4.91169 27.3142 4.91169 27.2128C4.91169 27.1115 4.94902 27.0208 5.02369 26.9408L6.28769 25.5488L5.08769 24.2128C5.00769 24.1222 4.96769 24.0315 4.96769 23.9408C4.96769 23.8395 5.00502 23.7542 5.07969 23.6848C5.15435 23.6102 5.23969 23.5728 5.33569 23.5728C5.43702 23.5728 5.53035 23.6182 5.61569 23.7088L6.77569 25.0208L7.93569 23.7088C8.02102 23.6182 8.11702 23.5728 8.22369 23.5728C8.31969 23.5728 8.40502 23.6102 8.47969 23.6848C8.55435 23.7542 8.59169 23.8395 8.59169 23.9408C8.59169 24.0422 8.55169 24.1328 8.47169 24.2128L7.27169 25.5488L8.52769 26.9408ZM11.0367 27.6048C10.658 27.6048 10.3247 27.5222 10.0367 27.3568C9.75402 27.1915 9.53269 26.9568 9.37269 26.6528C9.21802 26.3488 9.14069 25.9968 9.14069 25.5968C9.14069 25.1915 9.22069 24.8342 9.38069 24.5248C9.54602 24.2155 9.77535 23.9755 10.0687 23.8048C10.362 23.6342 10.698 23.5488 11.0767 23.5488C11.2794 23.5488 11.482 23.5782 11.6847 23.6368C11.8927 23.6955 12.0767 23.7755 12.2367 23.8768C12.4074 23.9942 12.4927 24.1302 12.4927 24.2848C12.4927 24.3755 12.4687 24.4528 12.4207 24.5168C12.3727 24.5755 12.3114 24.6048 12.2367 24.6048C12.1887 24.6048 12.1407 24.5942 12.0927 24.5728C12.0447 24.5462 11.9834 24.5088 11.9087 24.4608C11.7754 24.3755 11.65 24.3115 11.5327 24.2688C11.4207 24.2208 11.2847 24.1968 11.1247 24.1968C10.762 24.1968 10.4794 24.3195 10.2767 24.5648C10.0794 24.8102 9.98069 25.1515 9.98069 25.5888C9.98069 26.0262 10.0794 26.3648 10.2767 26.6048C10.474 26.8395 10.754 26.9568 11.1167 26.9568C11.2767 26.9568 11.418 26.9328 11.5407 26.8848C11.6634 26.8368 11.7887 26.7728 11.9167 26.6928C11.9754 26.6555 12.034 26.6235 12.0927 26.5968C12.1514 26.5702 12.2047 26.5568 12.2527 26.5568C12.3274 26.5568 12.3887 26.5888 12.4367 26.6528C12.4847 26.7115 12.5087 26.7862 12.5087 26.8768C12.5087 26.9515 12.4874 27.0208 12.4447 27.0848C12.4074 27.1435 12.3407 27.2048 12.2447 27.2688C12.0847 27.3755 11.898 27.4582 11.6847 27.5168C11.4714 27.5755 11.2554 27.6048 11.0367 27.6048ZM13.6399 27.5888C13.5225 27.5888 13.4239 27.5568 13.3439 27.4928C13.2692 27.4288 13.2319 27.3328 13.2319 27.2048V22.2608C13.2319 22.1328 13.2692 22.0368 13.3439 21.9728C13.4239 21.9035 13.5225 21.8688 13.6399 21.8688C13.7572 21.8688 13.8532 21.9035 13.9279 21.9728C14.0025 22.0368 14.0399 22.1328 14.0399 22.2608V27.2048C14.0399 27.3328 14.0025 27.4288 13.9279 27.4928C13.8532 27.5568 13.7572 27.5888 13.6399 27.5888ZM18.1934 23.5648C18.316 23.5648 18.412 23.5995 18.4814 23.6688C18.556 23.7382 18.5934 23.8342 18.5934 23.9568V27.2128C18.5934 27.3248 18.556 27.4155 18.4814 27.4848C18.4067 27.5542 18.308 27.5888 18.1854 27.5888C18.0734 27.5888 17.9827 27.5568 17.9134 27.4928C17.844 27.4235 17.8094 27.3328 17.8094 27.2208V26.9168C17.6867 27.1408 17.516 27.3115 17.2974 27.4288C17.084 27.5462 16.844 27.6048 16.5774 27.6048C15.628 27.6048 15.1534 27.0822 15.1534 26.0368V23.9568C15.1534 23.8342 15.188 23.7382 15.2574 23.6688C15.332 23.5995 15.4334 23.5648 15.5614 23.5648C15.684 23.5648 15.78 23.5995 15.8494 23.6688C15.924 23.7382 15.9614 23.8342 15.9614 23.9568V26.0288C15.9614 26.3435 16.0254 26.5755 16.1534 26.7248C16.2814 26.8742 16.4787 26.9488 16.7454 26.9488C17.06 26.9488 17.3107 26.8475 17.4974 26.6448C17.6894 26.4422 17.7854 26.1728 17.7854 25.8368V23.9568C17.7854 23.8395 17.8227 23.7462 17.8974 23.6768C17.972 23.6022 18.0707 23.5648 18.1934 23.5648ZM20.1321 27.5888C20.0147 27.5888 19.9161 27.5568 19.8361 27.4928C19.7614 27.4288 19.7241 27.3328 19.7241 27.2048V23.9568C19.7241 23.8288 19.7614 23.7328 19.8361 23.6688C19.9161 23.5995 20.0147 23.5648 20.1321 23.5648C20.2494 23.5648 20.3454 23.5995 20.4201 23.6688C20.4947 23.7328 20.5321 23.8288 20.5321 23.9568V27.2048C20.5321 27.3328 20.4947 27.4288 20.4201 27.4928C20.3454 27.5568 20.2494 27.5888 20.1321 27.5888ZM20.1321 22.7808C19.9774 22.7808 19.8547 22.7382 19.7641 22.6528C19.6734 22.5675 19.6281 22.4555 19.6281 22.3168C19.6281 22.1782 19.6734 22.0688 19.7641 21.9888C19.8547 21.9035 19.9774 21.8608 20.1321 21.8608C20.2814 21.8608 20.4014 21.9035 20.4921 21.9888C20.5881 22.0688 20.6361 22.1782 20.6361 22.3168C20.6361 22.4555 20.5907 22.5675 20.5001 22.6528C20.4094 22.7382 20.2867 22.7808 20.1321 22.7808ZM23.7096 23.5648C23.9656 23.5488 24.0936 23.6582 24.0936 23.8928C24.0936 24.0102 24.0642 24.0982 24.0056 24.1568C23.9469 24.2155 23.8456 24.2502 23.7016 24.2608L23.4616 24.2848C23.1256 24.3168 22.8749 24.4342 22.7096 24.6368C22.5496 24.8395 22.4696 25.0848 22.4696 25.3728V27.2048C22.4696 27.3328 22.4322 27.4288 22.3576 27.4928C22.2829 27.5568 22.1869 27.5888 22.0696 27.5888C21.9522 27.5888 21.8536 27.5568 21.7736 27.4928C21.6989 27.4288 21.6616 27.3328 21.6616 27.2048V23.9488C21.6616 23.8262 21.6989 23.7328 21.7736 23.6688C21.8536 23.5995 21.9522 23.5648 22.0696 23.5648C22.1762 23.5648 22.2642 23.5995 22.3336 23.6688C22.4082 23.7328 22.4456 23.8235 22.4456 23.9408V24.3248C22.5522 24.0902 22.7069 23.9115 22.9096 23.7888C23.1122 23.6662 23.3416 23.5942 23.5976 23.5728L23.7096 23.5648Z" fill="#AE1100"/>
</svg>
