<svg width="31" height="32" viewBox="0 0 31 32" fill="none" xmlns="http://www.w3.org/2000/svg">
<path d="M23 20C27.1576 20 28.8604 24.2958 29.5478 27.392C29.919 29.064 28.5666 30.5 26.8538 30.5H25M21 12.5C24.0376 12.5 26 10.0376 26 7C26 3.96244 24.0376 1.5 21 1.5M3.06376 30.5H17.937C19.066 30.5 19.9544 29.5634 19.7294 28.457C19.1084 25.4024 17.0798 20 10.5004 20C3.92102 20 1.8925 25.4024 1.27138 28.457C1.0464 29.5634 1.93476 30.5 3.06376 30.5ZM16 7C16 10.0376 13.5376 12.5 10.5 12.5C7.46243 12.5 5 10.0376 5 7C5 3.96243 7.46243 1.5 10.5 1.5C13.5376 1.5 16 3.96243 16 7Z" stroke="#343447" stroke-width="1.5" stroke-linecap="round" stroke-linejoin="round"/>
</svg>
