<svg width="22" height="31" viewBox="0 0 22 31" fill="none" xmlns="http://www.w3.org/2000/svg">
<path d="M3.75 14.75L8 13.75L17.2929 4.45708C17.6834 4.06655 17.6834 3.43339 17.2929 3.04286L15.4571 1.20708C15.0666 0.816552 14.4334 0.816552 14.0429 1.20708L4.75 10.5L3.75 14.75Z" stroke="#747488" stroke-width="1.5" stroke-linecap="round" stroke-linejoin="round"/>
<path d="M18.25 14.75H12.75" stroke="#747488" stroke-width="1.5" stroke-linecap="round" stroke-linejoin="round"/>
<path d="M1.104 27.5C0.96 27.5 0.848 27.4627 0.768 27.388C0.693333 27.308 0.656 27.196 0.656 27.052V22.308C0.656 22.164 0.693333 22.0547 0.768 21.98C0.848 21.9 0.96 21.86 1.104 21.86H4.024C4.136 21.86 4.22133 21.8893 4.28 21.948C4.33867 22.0013 4.368 22.0813 4.368 22.188C4.368 22.3 4.33867 22.3853 4.28 22.444C4.22133 22.5027 4.136 22.532 4.024 22.532H1.456V24.3H3.848C3.96533 24.3 4.05067 24.3293 4.104 24.388C4.16267 24.4467 4.192 24.5293 4.192 24.636C4.192 24.748 4.16267 24.8333 4.104 24.892C4.05067 24.9453 3.96533 24.972 3.848 24.972H1.456V26.828H4.024C4.136 26.828 4.22133 26.8573 4.28 26.916C4.33867 26.9747 4.368 27.0573 4.368 27.164C4.368 27.276 4.33867 27.3613 4.28 27.42C4.22133 27.4733 4.136 27.5 4.024 27.5H1.104ZM6.73569 27.572C6.39435 27.572 6.09302 27.492 5.83169 27.332C5.57569 27.1667 5.37569 26.932 5.23169 26.628C5.08769 26.3187 5.01569 25.9587 5.01569 25.548C5.01569 25.1267 5.08769 24.7667 5.23169 24.468C5.37569 24.1693 5.57569 23.9373 5.83169 23.772C6.09302 23.6067 6.39435 23.524 6.73569 23.524C7.07702 23.524 7.37035 23.6093 7.61569 23.78C7.86635 23.9453 8.03435 24.1693 8.11969 24.452H8.03169V22.212C8.03169 22.0787 8.06635 21.9773 8.13569 21.908C8.20502 21.8387 8.30369 21.804 8.43169 21.804C8.55969 21.804 8.65835 21.8387 8.72769 21.908C8.80235 21.9773 8.83969 22.0787 8.83969 22.212V27.148C8.83969 27.276 8.80502 27.3773 8.73569 27.452C8.66635 27.5213 8.56769 27.556 8.43969 27.556C8.31169 27.556 8.21302 27.5213 8.14369 27.452C8.07435 27.3773 8.03969 27.276 8.03969 27.148V26.444L8.12769 26.62C8.04235 26.908 7.87435 27.14 7.62369 27.316C7.37835 27.4867 7.08235 27.572 6.73569 27.572ZM6.94369 26.948C7.16235 26.948 7.35435 26.8947 7.51969 26.788C7.68502 26.6813 7.81302 26.524 7.90369 26.316C7.99969 26.108 8.04769 25.852 8.04769 25.548C8.04769 25.0893 7.94635 24.7427 7.74369 24.508C7.54102 24.2733 7.27435 24.156 6.94369 24.156C6.71969 24.156 6.52502 24.2093 6.35969 24.316C6.19435 24.4173 6.06369 24.572 5.96769 24.78C5.87702 24.988 5.83169 25.244 5.83169 25.548C5.83169 26.0013 5.93302 26.348 6.13569 26.588C6.33835 26.828 6.60769 26.948 6.94369 26.948ZM10.3743 27.548C10.2463 27.548 10.1476 27.5107 10.0783 27.436C10.0089 27.356 9.97425 27.2467 9.97425 27.108V23.988C9.97425 23.8493 10.0089 23.7427 10.0783 23.668C10.1476 23.5933 10.2463 23.556 10.3743 23.556C10.5023 23.556 10.6009 23.5933 10.6703 23.668C10.7449 23.7427 10.7823 23.8493 10.7823 23.988V27.108C10.7823 27.2467 10.7476 27.356 10.6783 27.436C10.6089 27.5107 10.5076 27.548 10.3743 27.548ZM10.3743 22.724C10.2143 22.724 10.0889 22.684 9.99825 22.604C9.91292 22.524 9.87025 22.412 9.87025 22.268C9.87025 22.1187 9.91292 22.0067 9.99825 21.932C10.0889 21.852 10.2143 21.812 10.3743 21.812C10.5343 21.812 10.6569 21.852 10.7423 21.932C10.8329 22.0067 10.8783 22.1187 10.8783 22.268C10.8783 22.412 10.8329 22.524 10.7423 22.604C10.6569 22.684 10.5343 22.724 10.3743 22.724ZM13.5836 27.572C13.2636 27.572 12.9942 27.516 12.7756 27.404C12.5569 27.292 12.3942 27.1267 12.2876 26.908C12.1809 26.6893 12.1276 26.4227 12.1276 26.108V24.22H11.6476C11.5409 24.22 11.4582 24.1933 11.3996 24.14C11.3409 24.0813 11.3116 24.004 11.3116 23.908C11.3116 23.8067 11.3409 23.7293 11.3996 23.676C11.4582 23.6227 11.5409 23.596 11.6476 23.596H12.1276V22.772C12.1276 22.6387 12.1622 22.5373 12.2316 22.468C12.3062 22.3987 12.4076 22.364 12.5356 22.364C12.6636 22.364 12.7622 22.3987 12.8316 22.468C12.9009 22.5373 12.9356 22.6387 12.9356 22.772V23.596H13.8716C13.9782 23.596 14.0609 23.6227 14.1196 23.676C14.1782 23.7293 14.2076 23.8067 14.2076 23.908C14.2076 24.004 14.1782 24.0813 14.1196 24.14C14.0609 24.1933 13.9782 24.22 13.8716 24.22H12.9356V26.044C12.9356 26.3267 12.9942 26.54 13.1116 26.684C13.2342 26.828 13.4316 26.9 13.7036 26.9C13.7996 26.9 13.8822 26.892 13.9516 26.876C14.0262 26.8547 14.0876 26.8413 14.1356 26.836C14.1942 26.836 14.2422 26.8573 14.2796 26.9C14.3169 26.9373 14.3356 27.012 14.3356 27.124C14.3356 27.204 14.3196 27.2787 14.2876 27.348C14.2609 27.4173 14.2102 27.4627 14.1356 27.484C14.0716 27.5053 13.9836 27.524 13.8716 27.54C13.7649 27.5613 13.6689 27.572 13.5836 27.572ZM16.0894 27.572C15.8174 27.572 15.5721 27.5187 15.3534 27.412C15.1401 27.3053 14.9721 27.1613 14.8494 26.98C14.7268 26.7987 14.6654 26.5933 14.6654 26.364C14.6654 26.076 14.7374 25.8493 14.8814 25.684C15.0308 25.5133 15.2734 25.3933 15.6094 25.324C15.9508 25.2493 16.4094 25.212 16.9854 25.212H17.3614V25.708H16.9934C16.6094 25.708 16.3054 25.7267 16.0814 25.764C15.8574 25.8013 15.6974 25.8653 15.6014 25.956C15.5108 26.0413 15.4654 26.1613 15.4654 26.316C15.4654 26.5187 15.5348 26.684 15.6734 26.812C15.8121 26.9347 16.0041 26.996 16.2494 26.996C16.4468 26.996 16.6201 26.9507 16.7694 26.86C16.9188 26.764 17.0361 26.636 17.1214 26.476C17.2121 26.316 17.2574 26.132 17.2574 25.924V25.004C17.2574 24.7 17.1934 24.4813 17.0654 24.348C16.9374 24.2147 16.7268 24.148 16.4334 24.148C16.2628 24.148 16.0841 24.1693 15.8974 24.212C15.7161 24.2547 15.5268 24.3267 15.3294 24.428C15.2388 24.4707 15.1614 24.484 15.0974 24.468C15.0334 24.452 14.9828 24.4173 14.9454 24.364C14.9081 24.3053 14.8868 24.244 14.8814 24.18C14.8814 24.1107 14.8974 24.044 14.9294 23.98C14.9668 23.916 15.0281 23.868 15.1134 23.836C15.3481 23.724 15.5801 23.644 15.8094 23.596C16.0388 23.548 16.2548 23.524 16.4574 23.524C16.8148 23.524 17.1081 23.58 17.3374 23.692C17.5721 23.804 17.7454 23.9747 17.8574 24.204C17.9694 24.4333 18.0254 24.7293 18.0254 25.092V27.148C18.0254 27.276 17.9934 27.3773 17.9294 27.452C17.8654 27.5213 17.7721 27.556 17.6494 27.556C17.5321 27.556 17.4388 27.5213 17.3694 27.452C17.3001 27.3773 17.2654 27.276 17.2654 27.148V26.628H17.3374C17.2948 26.8253 17.2148 26.996 17.0974 27.14C16.9854 27.2787 16.8441 27.3853 16.6734 27.46C16.5028 27.5347 16.3081 27.572 16.0894 27.572ZM19.5463 27.556C19.413 27.556 19.3116 27.5213 19.2423 27.452C19.173 27.3773 19.1383 27.276 19.1383 27.148V23.948C19.1383 23.8147 19.173 23.7133 19.2423 23.644C19.3116 23.5747 19.4076 23.54 19.5303 23.54C19.6583 23.54 19.7543 23.5747 19.8183 23.644C19.8876 23.7133 19.9223 23.8147 19.9223 23.948V24.532H19.8423C19.9276 24.212 20.085 23.9693 20.3143 23.804C20.5436 23.6387 20.837 23.5427 21.1943 23.516C21.2903 23.5107 21.365 23.5347 21.4183 23.588C21.477 23.6413 21.509 23.724 21.5143 23.836C21.525 23.948 21.501 24.0387 21.4423 24.108C21.3836 24.172 21.293 24.2093 21.1703 24.22L21.0183 24.236C20.6716 24.268 20.4076 24.3773 20.2263 24.564C20.045 24.7507 19.9543 25.0067 19.9543 25.332V27.148C19.9543 27.276 19.9196 27.3773 19.8503 27.452C19.7863 27.5213 19.685 27.556 19.5463 27.556Z" fill="#747488"/>
</svg>
