<svg width="31" height="32" viewBox="0 0 31 32" fill="none" xmlns="http://www.w3.org/2000/svg">
<path d="M23 20C27.1576 20 28.8604 24.2958 29.5478 27.392C29.919 29.064 28.5666 30.5 26.8538 30.5H25M21 12.5C24.0376 12.5 26 10.0376 26 7C26 3.96244 24.0376 1.5 21 1.5M3.0634 30.5H17.9366C19.0656 30.5 19.954 29.5634 19.729 28.457C19.108 25.4024 17.0794 20 10.5 20C3.92066 20 1.89214 25.4024 1.27102 28.457C1.04604 29.5634 1.9344 30.5 3.0634 30.5ZM16 7C16 10.0376 13.5376 12.5 10.5 12.5C7.46243 12.5 5 10.0376 5 7C5 3.96243 7.46243 1.5 10.5 1.5C13.5376 1.5 16 3.96243 16 7Z" stroke="#DA0175" stroke-width="1.5" stroke-linecap="round" stroke-linejoin="round"/>
</svg>
