<svg width="33" height="33" viewBox="0 0 33 33" fill="none" xmlns="http://www.w3.org/2000/svg">
<path fill-rule="evenodd" clip-rule="evenodd" d="M7.32363 7.76436C7.84433 7.24367 8.68855 7.24367 9.20925 7.76436L16.2664 14.8216L23.3236 7.76436C23.8443 7.24367 24.6885 7.24367 25.2092 7.76436C25.7299 8.28506 25.7299 9.12928 25.2092 9.64998L18.1521 16.7072L25.2092 23.7644C25.7299 24.2851 25.7299 25.1293 25.2092 25.65C24.6885 26.1707 23.8443 26.1707 23.3236 25.65L16.2664 18.5928L9.20925 25.65C8.68855 26.1707 7.84433 26.1707 7.32363 25.65C6.80293 25.1293 6.80293 24.2851 7.32363 23.7644L14.3808 16.7072L7.32363 9.64998C6.80293 9.12928 6.80293 8.28506 7.32363 7.76436Z" fill="#3F3F55"/>
</svg>
